# xmcd
#
# Track frame offsets: 
#        150
#        63787
#        139977
#        234879
#
# Disc length: 4340 seconds
#
# Revision: 1
# Processed by: cddbd v1.5.2PL0 Copyright (c) Steve Scherf et al.
# Submitted via: ExactAudioCopyFreeDBPlugin 1.0
#
DISCID=2c10f204
DTITLE=Brainwork - Ten
DYEAR=2008
DGENRE=Electronic
TTITLE0=Traffic
TTITLE1=Atlantica
TTITLE2=Pacifica
TTITLE3=Beauty of Sadness
EXTD=YEAR: 2008
EXTT0=
EXTT1=
EXTT2=
EXTT3=
PLAYORDER=
